<svg width="16" height="16" viewBox="0 0 16 16" fill="none" xmlns="http://www.w3.org/2000/svg">
<g clip-path="url(#clip0_19_4568)">
<mask id="mask0_19_4568" style="mask-type:luminance" maskUnits="userSpaceOnUse" x="0" y="0" width="16" height="16">
<path d="M0 0H16V16H0V0Z" fill="white"/>
</mask>
<g mask="url(#mask0_19_4568)">
<path fill-rule="evenodd" clip-rule="evenodd" d="M1.5 11H4.5L7.086 13.586C7.28375 13.7838 7.53573 13.9185 7.81006 13.9731C8.08439 14.0277 8.36874 13.9997 8.62716 13.8926C8.88557 13.7856 9.10643 13.6043 9.26179 13.3717C9.41716 13.1391 9.50006 12.8657 9.5 12.586V3.414C9.50006 3.13429 9.41716 2.86085 9.26179 2.62826C9.10643 2.39568 8.88557 2.21439 8.62716 2.10735C8.36874 2.0003 8.08439 1.9723 7.81006 2.02688C7.53573 2.08147 7.28375 2.21619 7.086 2.414L4.5 5H1.5C1.10218 5 0.720644 5.15803 0.43934 5.43934C0.158035 5.72064 0 6.10217 0 6.5L0 9.5C0 9.89782 0.158035 10.2794 0.43934 10.5607C0.720644 10.842 1.10218 11 1.5 11ZM14.162 13.103C13.897 13.422 13.419 13.42 13.126 13.127C12.834 12.834 12.838 12.361 13.095 12.037C14.0072 10.8894 14.5025 9.46598 14.5 8C14.5023 6.53436 14.0069 5.11136 13.095 3.964C12.838 3.639 12.834 3.167 13.127 2.874C13.419 2.581 13.897 2.579 14.162 2.898C15.3522 4.33154 16.0025 6.13677 16 8C16 9.94 15.31 11.718 14.162 13.103ZM12.024 10.968C11.778 11.301 11.298 11.298 11.005 11.005C10.712 10.713 10.721 10.241 10.945 9.893C11.3077 9.32826 11.5003 8.67116 11.5 8C11.5 7.303 11.296 6.654 10.945 6.108C10.721 5.76 10.712 5.288 11.005 4.995C11.298 4.702 11.778 4.699 12.025 5.033C12.638 5.863 13 6.889 13 8C13.0015 9.06841 12.6593 10.109 12.024 10.968Z" fill="#919191"/>
</g>
</g>
<defs>
<clipPath id="clip0_19_4568">
<rect width="16" height="16" fill="white"/>
</clipPath>
</defs>
</svg>
